<svg width="160" height="39" viewBox="0 0 160 39" fill="none" xmlns="http://www.w3.org/2000/svg">
<path d="M15.8 25.328L22.184 30.608C22.984 31.28 23.48 31.792 23.672 32.144C23.896 32.496 24.008 32.832 24.008 33.152C24.008 33.92 23.512 34.96 22.52 36.272C21.432 37.616 20.472 38.288 19.64 38.288C18.936 38.288 17.96 37.824 16.712 36.896L16.232 36.56C15.496 35.952 14.36 34.896 12.824 33.392C11.288 31.856 10.12 30.768 9.32 30.128V33.824C9.32 34.56 9.288 35.12 9.224 35.504C9.192 35.856 9.048 36.272 8.792 36.752C8.376 37.584 7.144 38 5.096 38C3.08 38 1.848 37.568 1.4 36.704C1.176 36.224 1.032 35.808 0.967998 35.456C0.935998 35.072 0.919998 34.512 0.919998 33.776V5.024C0.919998 4.288 0.935998 3.744 0.967998 3.392C1.032 3.008 1.176 2.576 1.4 2.096C1.848 1.232 3.096 0.799995 5.144 0.799995C6.68 0.799995 7.768 1.072 8.408 1.616C8.952 2.064 9.24 2.768 9.272 3.72799C9.304 4.016 9.32 4.46399 9.32 5.07199V20.288C9.896 19.808 10.76 18.992 11.912 17.84C13.096 16.688 13.976 15.872 14.552 15.392L15.128 15.008C16.248 14.144 17.208 13.712 18.008 13.712C18.808 13.712 19.72 14.368 20.744 15.68C21.8 16.96 22.328 17.968 22.328 18.704C22.328 19.44 21.736 20.304 20.552 21.296L15.8 25.328Z" fill="#2C2C2C"/>
<path d="M22.5612 25.376C22.5612 21.536 23.9052 18.368 26.5932 15.872C29.2812 13.376 32.3532 12.128 35.8092 12.128C39.2652 12.128 42.3212 13.376 44.9772 15.872C47.6333 18.336 48.9613 21.488 48.9613 25.328C48.9613 27.984 48.2732 30.352 46.8972 32.432C45.5212 34.48 43.8412 36 41.8572 36.992C39.9052 37.952 37.8732 38.432 35.7612 38.432C33.6492 38.432 31.6012 37.92 29.6172 36.896C27.6332 35.84 25.9532 34.304 24.5772 32.288C23.2332 30.24 22.5612 27.936 22.5612 25.376ZM32.5932 28.832C33.6172 29.6 34.6572 29.984 35.7132 29.984C36.7692 29.984 37.8252 29.584 38.8812 28.784C39.9372 27.984 40.4652 26.8 40.4652 25.232C40.4652 23.664 39.9692 22.496 38.9772 21.728C37.9852 20.96 36.9132 20.576 35.7612 20.576C34.6092 20.576 33.5372 20.976 32.5452 21.776C31.5532 22.576 31.0572 23.76 31.0572 25.328C31.0572 26.864 31.5692 28.032 32.5932 28.832Z" fill="#2C2C2C"/>
<path d="M49.4225 25.376C49.4225 21.536 50.7665 18.368 53.4545 15.872C56.1425 13.376 59.2145 12.128 62.6705 12.128C66.1265 12.128 69.1825 13.376 71.8385 15.872C74.4945 18.336 75.8225 21.488 75.8225 25.328C75.8225 27.984 75.1345 30.352 73.7585 32.432C72.3825 34.48 70.7025 36 68.7185 36.992C66.7665 37.952 64.7345 38.432 62.6225 38.432C60.5105 38.432 58.4625 37.92 56.4785 36.896C54.4945 35.84 52.8145 34.304 51.4385 32.288C50.0945 30.24 49.4225 27.936 49.4225 25.376ZM59.4545 28.832C60.4785 29.6 61.5185 29.984 62.5745 29.984C63.6305 29.984 64.6865 29.584 65.7425 28.784C66.7985 27.984 67.3265 26.8 67.3265 25.232C67.3265 23.664 66.8305 22.496 65.8385 21.728C64.8465 20.96 63.7745 20.576 62.6225 20.576C61.4705 20.576 60.3985 20.976 59.4065 21.776C58.4145 22.576 57.9185 23.76 57.9185 25.328C57.9185 26.864 58.4305 28.032 59.4545 28.832Z" fill="#2C2C2C"/>
<path d="M93.9477 2.19199C94.2037 1.712 94.6358 1.376 95.2438 1.184C95.8518 0.991995 96.6518 0.895994 97.6438 0.895994C98.6678 0.895994 99.4838 0.991995 100.092 1.184C100.7 1.376 101.116 1.712 101.34 2.19199C101.596 2.672 101.74 3.104 101.772 3.488C101.836 3.84 101.868 4.384 101.868 5.11999V33.776C101.868 34.512 101.836 35.072 101.772 35.456C101.74 35.808 101.596 36.208 101.34 36.656C100.86 37.52 99.4998 37.952 97.2598 37.952C95.0518 37.952 93.8198 37.168 93.5638 35.6C92.2198 37.136 90.3477 37.904 87.9477 37.904C85.0677 37.904 82.4437 36.656 80.0757 34.16C77.7077 31.632 76.5238 28.704 76.5238 25.376C76.5238 22.016 77.7077 19.072 80.0757 16.544C82.4757 14.016 85.0997 12.752 87.9477 12.752C90.3157 12.752 92.1558 13.552 93.4678 15.152V5.07199C93.4678 4.33599 93.4837 3.792 93.5157 3.44C93.5797 3.05599 93.7237 2.63999 93.9477 2.19199ZM86.1717 28.256C87.0037 29.12 88.0117 29.552 89.1957 29.552C90.3797 29.552 91.3557 29.12 92.1237 28.256C92.9237 27.392 93.3237 26.448 93.3237 25.424C93.3237 24.368 92.9397 23.392 92.1717 22.496C91.4357 21.6 90.4278 21.152 89.1478 21.152C87.8678 21.152 86.8438 21.6 86.0758 22.496C85.3078 23.36 84.9238 24.32 84.9238 25.376C84.9238 26.432 85.3397 27.392 86.1717 28.256Z" fill="#2C2C2C"/>
<path d="M103.051 25.376C103.051 21.536 104.395 18.368 107.083 15.872C109.771 13.376 112.843 12.128 116.299 12.128C119.755 12.128 122.811 13.376 125.467 15.872C128.123 18.336 129.451 21.488 129.451 25.328C129.451 27.984 128.763 30.352 127.387 32.432C126.011 34.48 124.331 36 122.347 36.992C120.395 37.952 118.363 38.432 116.251 38.432C114.139 38.432 112.091 37.92 110.107 36.896C108.123 35.84 106.443 34.304 105.067 32.288C103.723 30.24 103.051 27.936 103.051 25.376ZM113.083 28.832C114.107 29.6 115.147 29.984 116.203 29.984C117.259 29.984 118.315 29.584 119.371 28.784C120.427 27.984 120.955 26.8 120.955 25.232C120.955 23.664 120.459 22.496 119.467 21.728C118.475 20.96 117.403 20.576 116.251 20.576C115.099 20.576 114.027 20.976 113.035 21.776C112.043 22.576 111.547 23.76 111.547 25.328C111.547 26.864 112.059 28.032 113.083 28.832Z" fill="#2C2C2C"/>
<path d="M147.816 12.992C148.424 13.184 148.92 13.52 149.304 14C149.72 14.448 149.928 15.184 149.928 16.208C149.928 17.232 149.624 18.352 149.016 19.568C148.408 20.784 147.528 21.392 146.376 21.392C145.8 21.392 145.24 21.264 144.696 21.008C144.184 20.752 143.496 20.624 142.632 20.624C141.768 20.624 140.952 20.928 140.184 21.536C139.448 22.144 139.08 22.88 139.08 23.744V33.824C139.08 34.56 139.048 35.12 138.984 35.504C138.952 35.856 138.808 36.272 138.552 36.752C138.072 37.584 136.824 38 134.808 38C133.272 38 132.168 37.728 131.496 37.184C130.984 36.736 130.696 36.048 130.632 35.12C130.632 34.8 130.632 34.336 130.632 33.728V16.88C130.632 16.144 130.648 15.6 130.68 15.248C130.744 14.864 130.888 14.448 131.112 14C131.56 13.136 132.808 12.704 134.856 12.704C136.776 12.704 137.976 13.072 138.456 13.808C138.808 14.32 138.984 14.848 138.984 15.392C139.144 15.168 139.368 14.896 139.656 14.576C139.976 14.256 140.632 13.824 141.624 13.28C142.616 12.736 143.48 12.464 144.216 12.464C144.984 12.464 145.624 12.512 146.136 12.608C146.648 12.672 147.208 12.8 147.816 12.992Z" fill="#2C2C2C"/>
<path d="M150.65 16.928C150.65 16.192 150.666 15.648 150.698 15.296C150.762 14.912 150.906 14.48 151.13 14C151.578 13.168 152.826 12.752 154.874 12.752C156.41 12.752 157.498 13.024 158.138 13.568C158.682 14.016 158.97 14.704 159.002 15.632C159.034 15.952 159.05 16.416 159.05 17.024V33.824C159.05 34.56 159.018 35.12 158.954 35.504C158.922 35.856 158.778 36.272 158.522 36.752C158.106 37.584 156.874 38 154.826 38C152.81 38 151.578 37.568 151.13 36.704C150.906 36.224 150.762 35.808 150.698 35.456C150.666 35.104 150.65 34.544 150.65 33.776V16.928ZM158.522 8.048C158.298 8.496 157.882 8.816 157.274 9.008C156.666 9.2 155.85 9.29599 154.826 9.29599C153.834 9.29599 153.034 9.2 152.426 9.008C151.818 8.816 151.386 8.48 151.13 8C150.906 7.52 150.762 7.104 150.698 6.752C150.666 6.368 150.65 5.80799 150.65 5.07199C150.65 4.33599 150.666 3.792 150.698 3.44C150.762 3.05599 150.906 2.63999 151.13 2.19199C151.578 1.32799 152.826 0.895994 154.874 0.895994C156.89 0.895994 158.106 1.32799 158.522 2.19199C158.778 2.672 158.922 3.104 158.954 3.488C159.018 3.84 159.05 4.384 159.05 5.11999C159.05 5.85599 159.018 6.41599 158.954 6.8C158.922 7.15199 158.778 7.568 158.522 8.048Z" fill="#2C2C2C"/>
<path d="M14.4 3.13C14.4 2.97667 14.4033 2.86333 14.41 2.79C14.4233 2.71 14.4533 2.62 14.5 2.52C14.5933 2.34 14.8533 2.25 15.28 2.25C15.6867 2.25 15.94 2.34 16.04 2.52C16.0933 2.62 16.1233 2.71 16.13 2.79C16.1433 2.87 16.15 2.98667 16.15 3.14V7.77C16.15 8.01 16.17 8.16333 16.21 8.23C16.25 8.29 16.3367 8.32 16.47 8.32C16.61 8.32 16.7033 8.32667 16.75 8.34C16.7967 8.34667 16.8533 8.37333 16.92 8.42C17.0533 8.50667 17.12 8.74333 17.12 9.13C17.12 9.55 17.0533 9.80667 16.92 9.9C16.7467 10.02 16.3333 10.04 15.68 9.96C15.1667 9.89333 14.8333 9.72333 14.68 9.45C14.4933 9.12333 14.4 8.60333 14.4 7.89V3.13Z" fill="#2C2C2C"/>
<path d="M17.3215 7.37C17.3215 6.57 17.6015 5.91 18.1615 5.39C18.7215 4.87 19.3615 4.61 20.0815 4.61C20.8015 4.61 21.4381 4.87 21.9915 5.39C22.5448 5.90333 22.8215 6.56 22.8215 7.36C22.8215 7.91333 22.6781 8.40667 22.3915 8.84C22.1048 9.26667 21.7548 9.58333 21.3415 9.79C20.9348 9.99 20.5115 10.09 20.0715 10.09C19.6315 10.09 19.2048 9.98333 18.7915 9.77C18.3781 9.55 18.0281 9.23 17.7415 8.81C17.4615 8.38333 17.3215 7.90333 17.3215 7.37ZM19.4115 8.09C19.6248 8.25 19.8415 8.33 20.0615 8.33C20.2815 8.33 20.5015 8.24667 20.7215 8.08C20.9415 7.91333 21.0515 7.66667 21.0515 7.34C21.0515 7.01333 20.9481 6.77 20.7415 6.61C20.5348 6.45 20.3115 6.37 20.0715 6.37C19.8315 6.37 19.6081 6.45333 19.4015 6.62C19.1948 6.78667 19.0915 7.03333 19.0915 7.36C19.0915 7.68 19.1981 7.92333 19.4115 8.09Z" fill="#2C2C2C"/>
<path d="M23.1176 7.37C23.1176 6.57 23.3976 5.91 23.9576 5.39C24.5176 4.87 25.1576 4.61 25.8776 4.61C26.5976 4.61 27.2342 4.87 27.7876 5.39C28.3409 5.90333 28.6176 6.56 28.6176 7.36C28.6176 7.91333 28.4742 8.40667 28.1876 8.84C27.9009 9.26667 27.5509 9.58333 27.1376 9.79C26.7309 9.99 26.3076 10.09 25.8676 10.09C25.4276 10.09 25.0009 9.98333 24.5876 9.77C24.1742 9.55 23.8242 9.23 23.5376 8.81C23.2576 8.38333 23.1176 7.90333 23.1176 7.37ZM25.2076 8.09C25.4209 8.25 25.6376 8.33 25.8576 8.33C26.0776 8.33 26.2976 8.24667 26.5176 8.08C26.7376 7.91333 26.8476 7.66667 26.8476 7.34C26.8476 7.01333 26.7442 6.77 26.5376 6.61C26.3309 6.45 26.1076 6.37 25.8676 6.37C25.6276 6.37 25.4042 6.45333 25.1976 6.62C24.9909 6.78667 24.8876 7.03333 24.8876 7.36C24.8876 7.68 24.9942 7.92333 25.2076 8.09Z" fill="#2C2C2C"/>
<path d="M29.0637 11.43V5.59C29.0637 5.43667 29.067 5.32333 29.0737 5.25C29.087 5.17667 29.117 5.09333 29.1637 5C29.257 4.82 29.4803 4.73 29.8337 4.73C30.187 4.73 30.4237 4.77667 30.5437 4.87C30.6703 4.95667 30.7437 5.08667 30.7637 5.26C31.017 4.91333 31.4137 4.74 31.9537 4.74C32.5003 4.74 33.017 4.99667 33.5037 5.51C33.9903 6.02333 34.2337 6.62 34.2337 7.3C34.2337 7.98 33.9903 8.57667 33.5037 9.09C33.0237 9.60333 32.5103 9.86 31.9637 9.86C31.417 9.86 31.0203 9.70667 30.7737 9.4V11.42C30.7737 11.5733 30.767 11.6867 30.7537 11.76C30.747 11.8333 30.717 11.9167 30.6637 12.01C30.617 12.11 30.5337 12.18 30.4137 12.22C30.2937 12.26 30.1303 12.28 29.9237 12.28C29.717 12.28 29.5503 12.26 29.4237 12.22C29.3037 12.18 29.217 12.1133 29.1637 12.02C29.117 11.9267 29.087 11.8433 29.0737 11.77C29.067 11.6967 29.0637 11.5833 29.0637 11.43ZM31.0437 6.72C30.8903 6.9 30.8137 7.09667 30.8137 7.31C30.8137 7.52333 30.8903 7.72 31.0437 7.9C31.2037 8.07333 31.4037 8.16 31.6437 8.16C31.8903 8.16 32.097 8.07333 32.2637 7.9C32.437 7.72667 32.5237 7.53 32.5237 7.31C32.5237 7.09 32.4437 6.89333 32.2837 6.72C32.1237 6.54 31.9137 6.45 31.6537 6.45C31.4003 6.45 31.197 6.54 31.0437 6.72Z" fill="#2C2C2C"/>
<path d="M37.0533 9.53C36.9266 9.45 36.8633 9.32333 36.8633 9.15C36.8633 8.97667 36.9899 8.71333 37.2433 8.36C37.3166 8.24667 37.4333 8.19 37.5933 8.19C37.7599 8.19 37.9833 8.27333 38.2633 8.44C38.5433 8.6 38.7966 8.68 39.0233 8.68C39.4299 8.68 39.6333 8.6 39.6333 8.44C39.6333 8.31333 39.4099 8.22 38.9633 8.16C38.5433 8.1 38.1266 7.94333 37.7133 7.69C37.5199 7.57 37.3599 7.38333 37.2333 7.13C37.1066 6.87 37.0433 6.56333 37.0433 6.21C37.0433 5.15667 37.7666 4.63 39.2133 4.63C39.6866 4.63 40.1733 4.74333 40.6733 4.97C40.9066 5.07667 41.0233 5.21 41.0233 5.37C41.0233 5.53 40.9499 5.72667 40.8033 5.96C40.6566 6.19333 40.5066 6.31 40.3533 6.31C40.2733 6.31 40.1233 6.26 39.9033 6.16C39.6899 6.06 39.4566 6.01 39.2033 6.01C38.8099 6.01 38.6133 6.08333 38.6133 6.23C38.6133 6.43 38.8399 6.56 39.2933 6.62C39.7333 6.66667 40.1599 6.79333 40.5733 7C40.7666 7.09333 40.9266 7.25667 41.0533 7.49C41.1866 7.71667 41.2533 8.00333 41.2533 8.35C41.2533 8.69667 41.1866 8.99333 41.0533 9.24C40.9266 9.48 40.7466 9.66 40.5133 9.78C40.0866 9.98667 39.5499 10.09 38.9033 10.09C38.2633 10.09 37.6466 9.90333 37.0533 9.53Z" fill="#2C2C2C"/>
<path d="M46.2055 4.79C46.5988 4.96333 46.7955 5.17333 46.7955 5.42C46.7955 5.54 46.7688 5.65333 46.7155 5.76C46.6621 5.86667 46.6355 5.92333 46.6355 5.93L44.0155 11.79C43.9621 11.9167 43.9155 12.0133 43.8755 12.08C43.8421 12.1467 43.7855 12.21 43.7055 12.27C43.6255 12.33 43.5255 12.36 43.4055 12.36C43.2855 12.36 43.1088 12.31 42.8755 12.21C42.4821 12.0367 42.2855 11.83 42.2855 11.59C42.2855 11.43 42.6055 10.6667 43.2455 9.3L41.2555 5.95C41.1221 5.73 41.0555 5.56667 41.0555 5.46C41.0555 5.24667 41.2355 5.03333 41.5955 4.82C41.8221 4.68667 41.9988 4.62 42.1255 4.62C42.2521 4.62 42.3555 4.64667 42.4355 4.7C42.5155 4.75333 42.5721 4.81 42.6055 4.87C42.6455 4.92333 42.8288 5.23333 43.1555 5.8C43.4888 6.36 43.8055 6.88333 44.1055 7.37C44.1388 7.26333 44.3188 6.85333 44.6455 6.14C44.9721 5.42 45.1455 5.03667 45.1655 4.99C45.1921 4.94333 45.2321 4.88667 45.2855 4.82C45.3721 4.70667 45.4921 4.65 45.6455 4.65C45.8055 4.65 45.9921 4.69667 46.2055 4.79Z" fill="#2C2C2C"/>
<path d="M49.973 4.73C50.6396 4.73 51.193 4.98667 51.633 5.5C52.0796 6.00667 52.303 6.62667 52.303 7.36V9.12C52.303 9.27333 52.2963 9.39 52.283 9.47C52.2763 9.54333 52.2496 9.62667 52.203 9.72C52.1096 9.9 51.8496 9.99 51.423 9.99C50.9496 9.99 50.6763 9.86667 50.603 9.62C50.563 9.50667 50.543 9.33667 50.543 9.11V7.35C50.543 7.07667 50.463 6.86333 50.303 6.71C50.1496 6.55667 49.9396 6.48 49.673 6.48C49.413 6.48 49.1996 6.56 49.033 6.72C48.873 6.88 48.793 7.09 48.793 7.35V9.12C48.793 9.27333 48.7863 9.39 48.773 9.47C48.7663 9.54333 48.7363 9.62667 48.683 9.72C48.5963 9.9 48.3396 9.99 47.913 9.99C47.493 9.99 47.2363 9.9 47.143 9.72C47.0963 9.62 47.0663 9.53333 47.053 9.46C47.0463 9.38 47.043 9.26333 47.043 9.11V5.57C47.043 5.42333 47.0463 5.31333 47.053 5.24C47.0663 5.16 47.0996 5.07333 47.153 4.98C47.2463 4.81333 47.503 4.73 47.923 4.73C48.3296 4.73 48.5796 4.80667 48.673 4.96C48.7396 5.07333 48.773 5.21 48.773 5.37C48.7996 5.32333 48.8596 5.25667 48.953 5.17C49.0463 5.08333 49.1363 5.01333 49.223 4.96C49.4496 4.80667 49.6996 4.73 49.973 4.73Z" fill="#2C2C2C"/>
<path d="M55.8698 6.5L55.2198 6.46V7.84C55.2198 8.02 55.2464 8.15 55.2998 8.23C55.3598 8.31 55.4664 8.35 55.6198 8.35C55.7798 8.35 55.8998 8.35667 55.9798 8.37C56.0664 8.37667 56.1564 8.40667 56.2498 8.46C56.4031 8.54667 56.4798 8.77 56.4798 9.13C56.4798 9.55 56.3864 9.80667 56.1998 9.9C56.0998 9.94667 56.0098 9.97667 55.9298 9.99C55.8564 9.99667 55.7464 10 55.5998 10C54.9064 10 54.3798 9.84333 54.0198 9.53C53.6598 9.21667 53.4798 8.68667 53.4798 7.94V6.46C53.3531 6.48 53.2164 6.49 53.0698 6.49C52.9231 6.49 52.7998 6.43333 52.6998 6.32C52.6064 6.20667 52.5598 6.01333 52.5598 5.74C52.5598 5.46667 52.5764 5.27 52.6098 5.15C52.6431 5.02333 52.6898 4.93333 52.7498 4.88C52.8564 4.79333 52.9898 4.75 53.1498 4.75L53.4798 4.79V3.76C53.4798 3.60667 53.4831 3.49333 53.4898 3.42C53.5031 3.34667 53.5364 3.26667 53.5898 3.18C53.6764 3.01333 53.9331 2.93 54.3598 2.93C54.8131 2.93 55.0831 3.05333 55.1698 3.3C55.2031 3.40667 55.2198 3.57667 55.2198 3.81V4.79C55.5131 4.76333 55.7331 4.75 55.8798 4.75C56.0331 4.75 56.1464 4.75667 56.2198 4.77C56.2998 4.77667 56.3898 4.80667 56.4898 4.86C56.6631 4.94667 56.7498 5.20333 56.7498 5.63C56.7498 6.05 56.6598 6.30667 56.4798 6.4C56.3798 6.44667 56.2898 6.47667 56.2098 6.49C56.1364 6.49667 56.0231 6.5 55.8698 6.5Z" fill="#2C2C2C"/>
<path d="M60.0219 4.75C60.6886 4.75 61.2419 5.00333 61.6819 5.51C62.1286 6.01667 62.3519 6.63667 62.3519 7.37V9.13C62.3519 9.28333 62.3453 9.4 62.3319 9.48C62.3253 9.55333 62.2953 9.64 62.2419 9.74C62.1553 9.91333 61.8986 10 61.4719 10C61.0653 10 60.8119 9.91333 60.7119 9.74C60.6586 9.64 60.6253 9.55 60.6119 9.47C60.6053 9.39 60.6019 9.27 60.6019 9.11V7.36C60.6019 7.08667 60.5253 6.87333 60.3719 6.72C60.2186 6.56667 60.0219 6.49 59.7819 6.49C59.5486 6.49 59.3419 6.56333 59.1619 6.71C58.9819 6.85 58.8786 7.01 58.8519 7.19V9.13C58.8519 9.28333 58.8453 9.4 58.8319 9.48C58.8253 9.55333 58.7953 9.64 58.7419 9.74C58.6553 9.91333 58.3986 10 57.9719 10C57.5519 10 57.2953 9.91 57.2019 9.73C57.1553 9.63 57.1253 9.54333 57.1119 9.47C57.1053 9.39667 57.1019 9.28 57.1019 9.12V3.14C57.1019 2.98667 57.1053 2.87333 57.1119 2.8C57.1253 2.72 57.1553 2.63333 57.2019 2.54C57.2953 2.36 57.5553 2.27 57.9819 2.27C58.4019 2.27 58.6553 2.36 58.7419 2.54C58.7953 2.64 58.8253 2.73 58.8319 2.81C58.8453 2.88333 58.8519 2.99667 58.8519 3.15V5.36C59.1853 4.95333 59.5753 4.75 60.0219 4.75Z" fill="#2C2C2C"/>
<path d="M68.0366 6.74C68.0366 7.14667 67.9333 7.45 67.7266 7.65C67.5266 7.84333 67.3033 7.94 67.0566 7.94H64.6866C64.6866 8.12667 64.7966 8.28333 65.0166 8.41C65.2366 8.53667 65.4566 8.6 65.6766 8.6C66.0633 8.6 66.3666 8.56 66.5866 8.48L66.6966 8.44C66.8566 8.36667 66.99 8.33 67.0966 8.33C67.31 8.33 67.4933 8.48 67.6466 8.78C67.7333 8.96 67.7766 9.11333 67.7766 9.24C67.7766 9.83333 67.0666 10.13 65.6466 10.13C65.1533 10.13 64.7133 10.0467 64.3266 9.88C63.9466 9.70667 63.65 9.48 63.4366 9.2C63.0166 8.66 62.8066 8.05667 62.8066 7.39C62.8066 6.55 63.0766 5.88 63.6166 5.38C64.1633 4.87333 64.8433 4.62 65.6566 4.62C66.5833 4.62 67.2633 4.94667 67.6966 5.6C67.9233 5.94667 68.0366 6.32667 68.0366 6.74ZM65.9266 7.03C66.18 7.03 66.3066 6.92333 66.3066 6.71C66.3066 6.55667 66.2466 6.43333 66.1266 6.34C66.0133 6.24667 65.8466 6.2 65.6266 6.2C65.4133 6.2 65.2 6.29 64.9866 6.47C64.7733 6.64333 64.6666 6.83 64.6666 7.03H65.9266Z" fill="#2C2C2C"/>
<path d="M68.5291 9.53C68.4024 9.45 68.3391 9.32333 68.3391 9.15C68.3391 8.97667 68.4657 8.71333 68.7191 8.36C68.7924 8.24667 68.9091 8.19 69.0691 8.19C69.2357 8.19 69.4591 8.27333 69.7391 8.44C70.0191 8.6 70.2724 8.68 70.4991 8.68C70.9057 8.68 71.1091 8.6 71.1091 8.44C71.1091 8.31333 70.8857 8.22 70.4391 8.16C70.0191 8.1 69.6024 7.94333 69.1891 7.69C68.9957 7.57 68.8357 7.38333 68.7091 7.13C68.5824 6.87 68.5191 6.56333 68.5191 6.21C68.5191 5.15667 69.2424 4.63 70.6891 4.63C71.1624 4.63 71.6491 4.74333 72.1491 4.97C72.3824 5.07667 72.4991 5.21 72.4991 5.37C72.4991 5.53 72.4257 5.72667 72.2791 5.96C72.1324 6.19333 71.9824 6.31 71.8291 6.31C71.7491 6.31 71.5991 6.26 71.3791 6.16C71.1657 6.06 70.9324 6.01 70.6791 6.01C70.2857 6.01 70.0891 6.08333 70.0891 6.23C70.0891 6.43 70.3157 6.56 70.7691 6.62C71.2091 6.66667 71.6357 6.79333 72.0491 7C72.2424 7.09333 72.4024 7.25667 72.5291 7.49C72.6624 7.71667 72.7291 8.00333 72.7291 8.35C72.7291 8.69667 72.6624 8.99333 72.5291 9.24C72.4024 9.48 72.2224 9.66 71.9891 9.78C71.5624 9.98667 71.0257 10.09 70.3791 10.09C69.7391 10.09 69.1224 9.90333 68.5291 9.53Z" fill="#2C2C2C"/>
<path d="M73.1816 5.61C73.1816 5.45667 73.185 5.34333 73.1916 5.27C73.205 5.19 73.235 5.1 73.2816 5C73.375 4.82667 73.635 4.74 74.0616 4.74C74.3816 4.74 74.6083 4.79667 74.7416 4.91C74.855 5.00333 74.915 5.14667 74.9216 5.34C74.9283 5.40667 74.9316 5.50333 74.9316 5.63V9.13C74.9316 9.28333 74.925 9.4 74.9116 9.48C74.905 9.55333 74.875 9.64 74.8216 9.74C74.735 9.91333 74.4783 10 74.0516 10C73.6316 10 73.375 9.91 73.2816 9.73C73.235 9.63 73.205 9.54333 73.1916 9.47C73.185 9.39667 73.1816 9.28 73.1816 9.12V5.61ZM74.8216 3.76C74.775 3.85333 74.6883 3.92 74.5616 3.96C74.435 4 74.265 4.02 74.0516 4.02C73.845 4.02 73.6783 4 73.5516 3.96C73.425 3.92 73.335 3.85 73.2816 3.75C73.235 3.65 73.205 3.56333 73.1916 3.49C73.185 3.41 73.1816 3.29333 73.1816 3.14C73.1816 2.98667 73.185 2.87333 73.1916 2.8C73.205 2.72 73.235 2.63333 73.2816 2.54C73.375 2.36 73.635 2.27 74.0616 2.27C74.4816 2.27 74.735 2.36 74.8216 2.54C74.875 2.64 74.905 2.73 74.9116 2.81C74.925 2.88333 74.9316 2.99667 74.9316 3.15C74.9316 3.30333 74.925 3.42 74.9116 3.5C74.905 3.57333 74.875 3.66 74.8216 3.76Z" fill="#2C2C2C"/>
<path d="M78.1605 8.24H79.8705C80.1371 8.24 80.3271 8.27333 80.4405 8.34C80.5605 8.40667 80.6405 8.50333 80.6805 8.63C80.7205 8.75667 80.7405 8.92333 80.7405 9.13C80.7405 9.33667 80.7205 9.50333 80.6805 9.63C80.6405 9.75667 80.5705 9.84667 80.4705 9.9C80.3705 9.94667 80.2805 9.97667 80.2005 9.99C80.1271 9.99667 80.0138 10 79.8605 10H76.2505C76.0171 10 75.8138 9.91333 75.6405 9.74C75.4671 9.56667 75.3805 9.36 75.3805 9.12C75.3805 8.88 75.4671 8.67667 75.6405 8.51C75.8138 8.33667 76.0805 8.09 76.4405 7.77C76.8005 7.45 77.1271 7.16333 77.4205 6.91C77.7138 6.65 77.8738 6.50667 77.9005 6.48H76.4905C76.1105 6.48 75.8705 6.41667 75.7705 6.29C75.6571 6.14333 75.6005 5.95 75.6005 5.71C75.6005 5.47 75.6171 5.29333 75.6505 5.18C75.6838 5.06 75.7238 4.97333 75.7705 4.92C75.8171 4.86 75.8838 4.81333 75.9705 4.78C76.0838 4.74667 76.2571 4.73 76.4905 4.73H79.7405C79.9738 4.73 80.1771 4.81333 80.3505 4.98C80.5238 5.14667 80.6105 5.35667 80.6105 5.61C80.6105 5.85667 80.5105 6.07667 80.3105 6.27C80.1105 6.46333 79.3938 7.12 78.1605 8.24Z" fill="#2C2C2C"/>
<path d="M85.9671 6.74C85.9671 7.14667 85.8638 7.45 85.6571 7.65C85.4571 7.84333 85.2338 7.94 84.9871 7.94H82.6171C82.6171 8.12667 82.7271 8.28333 82.9471 8.41C83.1671 8.53667 83.3871 8.6 83.6071 8.6C83.9938 8.6 84.2971 8.56 84.5171 8.48L84.6271 8.44C84.7871 8.36667 84.9204 8.33 85.0271 8.33C85.2404 8.33 85.4238 8.48 85.5771 8.78C85.6638 8.96 85.7071 9.11333 85.7071 9.24C85.7071 9.83333 84.9971 10.13 83.5771 10.13C83.0838 10.13 82.6438 10.0467 82.2571 9.88C81.8771 9.70667 81.5804 9.48 81.3671 9.2C80.9471 8.66 80.7371 8.05667 80.7371 7.39C80.7371 6.55 81.0071 5.88 81.5471 5.38C82.0938 4.87333 82.7738 4.62 83.5871 4.62C84.5138 4.62 85.1938 4.94667 85.6271 5.6C85.8538 5.94667 85.9671 6.32667 85.9671 6.74ZM83.8571 7.03C84.1104 7.03 84.2371 6.92333 84.2371 6.71C84.2371 6.55667 84.1771 6.43333 84.0571 6.34C83.9438 6.24667 83.7771 6.2 83.5571 6.2C83.3438 6.2 83.1304 6.29 82.9171 6.47C82.7038 6.64333 82.5971 6.83 82.5971 7.03H83.8571Z" fill="#2C2C2C"/>
<path d="M89.9995 4.79C90.1262 4.83 90.2295 4.9 90.3095 5C90.3962 5.09333 90.4395 5.24667 90.4395 5.46C90.4395 5.67333 90.3762 5.90667 90.2495 6.16C90.1229 6.41333 89.9395 6.54 89.6995 6.54C89.5795 6.54 89.4629 6.51333 89.3495 6.46C89.2429 6.40667 89.0995 6.38 88.9195 6.38C88.7395 6.38 88.5695 6.44333 88.4095 6.57C88.2562 6.69667 88.1795 6.85 88.1795 7.03V9.13C88.1795 9.28333 88.1729 9.4 88.1595 9.48C88.1529 9.55333 88.1229 9.64 88.0695 9.74C87.9695 9.91333 87.7095 10 87.2895 10C86.9695 10 86.7395 9.94333 86.5995 9.83C86.4929 9.73667 86.4329 9.59333 86.4195 9.4C86.4195 9.33333 86.4195 9.23667 86.4195 9.11V5.6C86.4195 5.44667 86.4229 5.33333 86.4295 5.26C86.4429 5.18 86.4729 5.09333 86.5195 5C86.6129 4.82 86.8729 4.73 87.2995 4.73C87.6995 4.73 87.9495 4.80667 88.0495 4.96C88.1229 5.06667 88.1595 5.17667 88.1595 5.29C88.1929 5.24333 88.2395 5.18667 88.2995 5.12C88.3662 5.05333 88.5029 4.96333 88.7095 4.85C88.9162 4.73667 89.0962 4.68 89.2495 4.68C89.4095 4.68 89.5429 4.69 89.6495 4.71C89.7562 4.72333 89.8729 4.75 89.9995 4.79Z" fill="#2C2C2C"/>
</svg>
